<?xml version="1.0" standalone="no"?>
<!DOCTYPE svg PUBLIC "-//W3C//DTD SVG 20010904//EN"
 "http://www.w3.org/TR/2001/REC-SVG-20010904/DTD/svg10.dtd">
<svg version="1.0" xmlns="http://www.w3.org/2000/svg"
 width="640.000000pt" height="640.000000pt" viewBox="0 0 640.000000 640.000000"
 preserveAspectRatio="xMidYMid meet">
<metadata>
Created by potrace 1.14, written by Peter Selinger 2001-2017
</metadata>
<g transform="translate(0.000000,640.000000) scale(0.100000,-0.100000)"
fill="#000000" stroke="none">
<path d="M0 3200 l0 -3200 1741 0 c1651 0 1741 1 1734 18 -11 30 -10 36 6 39
11 3 22 -7 30 -26 l14 -30 347 -1 c192 0 348 3 348 6 0 3 -8 18 -18 32 -10 15
-58 97 -107 182 -49 85 -108 188 -132 228 -72 120 -75 140 -21 168 16 8 91 38
166 65 75 28 258 98 406 157 252 99 270 105 294 91 22 -12 195 -291 332 -535
58 -103 56 -112 -38 -153 -190 -85 -267 -118 -417 -177 l-160 -63 938 -1 937
0 0 2060 0 2060 -25 -6 c-23 -6 -25 -4 -25 32 0 24 3 34 8 26 5 -7 16 -10 25
-6 16 6 17 89 17 1120 l0 1114 -3200 0 -3200 0 0 -3200z m5998 2692 c3 -38 5
-41 23 -29 26 16 54 -2 54 -34 0 -18 -6 -25 -24 -27 -13 -2 -28 1 -34 7 -17
17 -27 13 -27 -9 0 -11 -4 -20 -10 -20 -5 0 -10 18 -10 40 0 38 -1 39 -28 34
-32 -6 -56 14 -50 43 4 22 43 29 64 13 11 -10 14 -8 14 10 0 39 25 15 28 -28z
m172 -281 c0 -5 -10 -16 -22 -24 l-23 -16 28 0 c34 -1 69 -35 65 -64 -6 -39
-88 -58 -88 -20 0 9 6 12 19 8 22 -7 43 15 31 34 -5 9 -18 12 -38 8 -25 -5
-31 -2 -36 16 -10 38 -7 55 12 60 30 8 52 7 52 -2z m-1184 -61 c23 0 16 -27
-8 -34 -19 -5 -21 -8 -8 -16 8 -5 25 -10 37 -10 33 0 54 -35 41 -71 -5 -16
-11 -29 -12 -29 -2 0 -17 5 -35 11 -38 13 -44 43 -6 33 19 -5 25 -2 25 10 0
10 -9 16 -24 16 -13 0 -34 8 -46 18 -18 15 -21 24 -15 51 5 23 11 31 22 27 8
-3 21 -6 29 -6z m-681 -240 c73 0 148 -35 139 -65 -8 -27 -32 -53 -55 -60 -27
-9 -24 -35 5 -35 31 0 147 -116 176 -175 12 -24 30 -56 42 -70 11 -14 19 -28
17 -30 -2 -1 -35 10 -74 25 -38 15 -71 24 -73 20 -2 -5 -12 0 -23 11 -10 10
-26 19 -34 19 -26 0 -16 -28 15 -42 27 -12 49 -43 37 -54 -2 -2 -36 22 -75 55
-39 32 -69 61 -66 64 8 8 -20 24 -80 46 -53 20 -61 20 -68 6 -5 -8 -13 -13
-18 -10 -18 11 -18 -25 1 -49 11 -14 16 -26 11 -26 -6 0 -18 -3 -28 -7 -9 -3
-15 -2 -12 3 3 5 -13 42 -36 83 -40 72 -43 74 -105 96 -35 13 -68 28 -74 34
-17 17 5 13 48 -9 56 -29 103 -27 111 4 3 14 -1 37 -10 54 -31 61 -16 85 84
130 67 31 84 32 88 5 3 -21 9 -23 57 -23z m871 -102 c9 -18 25 -40 35 -48 13
-10 17 -22 13 -37 -6 -23 -34 -33 -34 -12 0 6 -6 9 -12 6 -59 -22 -58 -22 -58
37 0 30 3 61 6 70 10 26 32 18 50 -16z m-1146 -183 c0 -8 -2 -15 -4 -15 -2 0
-6 7 -10 15 -3 8 -1 15 4 15 6 0 10 -7 10 -15z m-51 -36 c29 -14 46 -17 54
-10 9 7 19 -1 35 -29 l22 -39 -62 29 c-80 38 -101 39 -88 5 15 -38 3 -30 -20
14 -14 29 -16 41 -7 44 19 8 21 8 66 -14z m271 -19 c0 -5 -4 -10 -10 -10 -5 0
-10 5 -10 10 0 6 5 10 10 10 6 0 10 -4 10 -10z m1210 1 c0 -5 -7 -11 -15 -15
-15 -5 -20 5 -8 17 9 10 23 9 23 -2z m-2205 -15 c135 -36 226 -130 250 -258 4
-21 5 -38 3 -38 -13 0 -140 129 -135 137 8 13 -21 53 -38 53 -8 0 -37 23 -64
50 -28 28 -57 50 -65 50 -8 0 -18 5 -21 10 -8 13 10 12 70 -4z m2124 -6 c-10
-6 -15 -20 -14 -35 2 -14 -1 -27 -6 -31 -5 -3 -9 10 -9 30 0 32 9 44 35 45 6
0 3 -4 -6 -9z m78 -22 c-3 -8 -6 -5 -6 6 -1 11 2 17 5 13 3 -3 4 -12 1 -19z
m-1143 -4 c10 -10 14 -24 10 -39 -5 -19 0 -27 25 -40 18 -9 29 -20 26 -26 -4
-6 -20 -1 -41 12 -50 30 -85 12 -48 -25 14 -15 14 -17 -1 -22 -9 -4 -17 -5
-18 -3 -10 13 -67 128 -67 133 0 19 30 1 42 -24 9 -22 19 -30 33 -28 26 4 31
35 9 59 -15 17 -15 19 -1 19 8 0 23 -7 31 -16z m1116 6 c0 -5 -5 -10 -11 -10
-5 0 -7 5 -4 10 3 6 8 10 11 10 2 0 4 -4 4 -10z m-1450 -64 c0 -12 -5 -7 -19
24 -11 24 -11 24 3 6 9 -11 16 -24 16 -30z m-743 6 c103 -53 132 -184 59 -268
l-33 -38 23 -95 c23 -98 23 -117 1 -88 -6 9 -37 45 -67 81 -50 59 -58 65 -95
66 -56 0 -137 41 -170 84 -29 38 -43 111 -31 160 9 37 55 86 100 107 54 25
154 20 213 -9z m-357 -167 c2 -5 -2 -21 -9 -34 -11 -20 -10 -26 12 -50 22 -22
26 -39 31 -111 l6 -85 -39 43 c-61 66 -76 105 -76 197 0 70 4 86 30 133 l30
52 6 -67 c3 -38 7 -72 9 -78z m3090 54 c7 -11 9 -27 6 -34 -3 -8 6 -23 19 -34
14 -10 25 -22 25 -25 0 -10 -38 -7 -45 4 -11 18 -23 11 -18 -10 3 -13 0 -20
-9 -20 -16 0 -82 116 -73 130 3 5 24 10 45 10 30 0 42 -5 50 -21z m-3700 -96
c0 -48 -11 -73 -31 -73 -16 0 -18 5 -13 28 4 15 14 32 22 38 11 8 12 13 4 18
-7 4 -12 2 -12 -5 0 -7 -3 -10 -6 -6 -9 9 5 27 22 27 9 0 14 -10 14 -27z m32
5 c-7 -7 -12 -8 -12 -2 0 14 12 26 19 19 2 -3 -1 -11 -7 -17z m-96 -13 c-11
-8 -23 -15 -27 -15 -4 0 -10 -20 -13 -45 -6 -36 -11 -45 -27 -45 -22 0 -23 8
-7 47 6 15 10 33 9 40 -1 7 13 17 31 22 47 13 56 12 34 -4z m143 -4 c8 -15 7
-20 -8 -24 -15 -3 -18 1 -17 19 1 29 12 31 25 5z m-229 -31 c0 -5 -4 -10 -10
-10 -5 0 -10 -7 -10 -16 0 -8 -5 -12 -11 -8 -14 8 -29 -14 -29 -42 0 -13 -8
-24 -20 -27 -18 -4 -19 -1 -14 26 3 18 9 33 14 35 5 2 7 9 4 15 -5 13 29 34
59 36 9 0 17 -3 17 -9z m1340 -15 c7 -9 21 -13 31 -10 16 5 18 2 14 -22 -2
-15 -9 -57 -14 -93 -6 -36 -13 -81 -16 -101 -4 -28 -12 -39 -40 -52 -49 -23
-53 -21 -23 11 34 36 48 65 48 98 0 27 -2 26 -46 -24 -26 -29 -48 -51 -50 -49
-7 7 45 119 66 142 22 24 24 54 5 98 -9 21 8 23 25 2z m-1091 -26 c-24 -15
-29 -10 -11 11 10 12 18 16 21 9 2 -6 -3 -15 -10 -20z m-364 -9 c-10 -11 -21
-17 -25 -15 -10 6 -20 -20 -20 -51 0 -13 -4 -24 -9 -24 -5 0 -18 -3 -28 -7
-16 -6 -16 -5 -5 10 8 9 11 20 8 25 -8 13 59 82 80 82 16 0 16 -1 -1 -20z
m399 -15 c4 -14 4 -31 0 -37 -4 -7 -3 -8 4 -4 7 4 12 2 12 -3 0 -6 10 -22 22
-37 26 -29 62 -114 49 -114 -5 0 -8 -11 -7 -24 0 -14 6 -22 13 -19 6 3 9 12 6
21 -4 15 -3 15 6 2 22 -28 91 -170 84 -170 -5 0 -18 20 -31 44 -23 42 -25 43
-52 33 -16 -6 -27 -14 -24 -18 2 -4 0 -10 -5 -13 -22 -14 -19 14 4 32 30 23
33 52 6 52 -10 0 -35 -7 -54 -15 -40 -17 -121 -19 -152 -4 -16 8 -15 8 8 4 19
-4 26 -2 22 5 -3 5 0 10 9 10 8 0 16 -6 19 -12 3 -10 7 -10 20 1 9 7 24 11 32
7 9 -3 14 -2 10 3 -3 5 11 15 31 21 25 9 33 15 25 23 -7 7 -15 6 -25 -2 -15
-13 -36 -7 -36 8 0 5 9 11 21 14 32 9 17 32 -20 31 -41 -2 -39 10 4 30 38 18
38 18 29 39 -5 14 -11 14 -57 0 -78 -23 -95 -44 -61 -78 9 -9 14 -25 11 -35
-3 -11 0 -23 5 -27 7 -3 8 -1 4 5 -5 8 2 12 18 12 48 0 21 -31 -29 -34 -21 -1
-69 68 -62 88 3 6 10 -2 16 -18 6 -16 14 -27 17 -24 2 3 0 16 -5 30 -10 26
-43 42 -58 28 -11 -10 -105 -41 -111 -36 -7 7 31 24 71 31 27 5 37 12 37 26 0
11 5 19 10 19 6 0 10 -4 10 -9 0 -5 7 -12 16 -15 14 -5 15 -4 4 9 -10 12 -9
15 6 15 37 0 95 21 88 32 -4 6 1 8 16 3 20 -6 21 -5 11 14 -14 25 -15 25 -74
5 -26 -9 -47 -22 -47 -30 0 -8 -4 -14 -10 -14 -5 0 -10 7 -10 16 0 8 -5 12
-10 9 -6 -4 -8 -10 -5 -15 3 -5 -3 -9 -12 -8 -10 0 -38 -7 -62 -16 -49 -18
-59 -20 -46 -8 6 5 29 15 53 22 23 7 48 20 55 29 10 12 9 14 -5 9 -9 -4 -19
-1 -22 7 -4 10 -14 9 -48 -8 -24 -11 -46 -25 -49 -30 -4 -5 -12 -6 -18 -3 -7
5 -11 -2 -11 -16 0 -24 -61 -98 -80 -98 -5 0 -14 -9 -20 -20 -8 -16 -8 -20 4
-20 10 0 13 -6 9 -16 -4 -10 1 -17 16 -21 11 -3 21 -9 21 -14 0 -12 37 -11 61
1 16 9 19 7 19 -15 0 -22 -3 -24 -19 -16 -10 6 -21 8 -24 5 -6 -6 -107 43
-107 52 0 3 5 2 10 -1 6 -3 10 -2 10 3 0 6 -7 12 -15 16 -20 7 -19 18 5 44 12
12 16 22 10 22 -5 0 -10 7 -10 15 0 8 -5 15 -11 15 -5 0 -7 -4 -4 -10 3 -5 4
-10 1 -10 -3 0 -8 5 -11 10 -3 6 5 14 19 20 14 5 26 15 26 21 0 8 -4 8 -15 -1
-23 -19 -28 -6 -6 14 17 15 20 15 34 1 17 -16 28 -20 26 -7 -4 21 3 30 26 36
14 4 25 11 25 17 0 6 9 8 20 4 13 -4 34 2 57 15 25 15 39 18 46 11 6 -6 18
-11 27 -10 10 0 11 2 2 6 -6 2 -10 9 -7 14 4 5 12 3 19 -4 8 -6 12 -15 9 -19
-2 -5 5 -8 16 -8 24 0 19 25 -7 35 -14 5 -12 8 8 19 30 15 37 12 20 -9 -9 -11
-9 -15 -1 -15 7 0 9 -4 6 -10 -3 -5 1 -10 10 -10 8 0 18 6 21 14 3 8 13 12 24
9 14 -4 22 2 30 21 12 33 26 33 34 1z m-486 -2 c-10 -2 -18 -8 -18 -13 0 -4
-9 -10 -20 -13 -15 -4 -20 -14 -20 -40 0 -23 -6 -37 -16 -41 -22 -9 -24 -8
-24 9 0 8 6 15 13 15 9 0 8 3 -2 9 -11 7 -10 11 5 19 10 6 16 14 12 17 -4 4
-21 -6 -38 -23 -18 -19 -30 -25 -30 -16 0 8 -5 14 -10 14 -5 0 -9 -3 -9 -7 7
-41 -3 -74 -23 -82 -13 -5 -24 -8 -26 -6 -5 5 20 60 31 67 6 4 9 10 5 13 -11
12 -58 -27 -59 -49 0 -19 -1 -19 -12 4 l-11 25 -4 -32 c-2 -18 -8 -33 -14 -33
-6 0 -8 11 -6 25 3 13 1 22 -3 19 -5 -3 -9 1 -9 9 0 9 25 23 63 36 34 12 96
35 137 51 41 16 82 29 90 28 10 0 10 -2 -2 -5z m1123 -138 c25 -28 38 -35 67
-35 34 0 178 -48 169 -56 -2 -2 -35 0 -73 5 -38 5 -71 6 -74 4 -3 -2 6 -13 20
-23 26 -20 64 -30 111 -30 39 0 37 -16 -3 -23 -36 -6 -66 7 -208 89 -67 39
-80 50 -61 52 19 3 22 8 17 28 -9 33 -1 30 35 -11z m-1161 -4 c0 -20 -36 -36
-46 -20 -3 5 4 9 15 9 12 0 21 7 21 15 0 8 2 15 5 15 3 0 5 -8 5 -19z m37 3
c-3 -3 -12 -4 -19 -1 -8 3 -5 6 6 6 11 1 17 -2 13 -5z m3013 -14 c0 -5 -9 -14
-20 -20 -29 -15 -14 -32 21 -25 22 5 29 3 29 -8 0 -8 -10 -17 -22 -20 -18 -5
-19 -8 -9 -21 8 -10 22 -14 36 -10 36 9 39 -13 3 -25 -17 -6 -35 -11 -39 -11
-13 0 -81 122 -72 130 8 8 36 17 61 19 6 0 12 -3 12 -9z m-3120 -26 c0 -1 -5
-15 -10 -29 -7 -18 -15 -25 -25 -21 -10 3 -15 -1 -15 -12 0 -15 -2 -15 -10 -2
-6 10 -6 16 0 18 20 7 9 20 -12 15 -20 -4 -19 -2 5 12 15 8 27 20 27 24 0 5 9
7 20 4 11 -3 20 -7 20 -9z m268 -14 c3 -9 -1 -11 -11 -7 -10 4 -17 -1 -20 -14
-3 -10 -13 -19 -22 -19 -17 0 -14 11 13 43 17 19 33 18 40 -3z m-408 -65 c-8
-9 -8 -15 0 -20 5 -3 10 -16 9 -28 0 -16 -6 -11 -20 21 -18 38 -18 44 -4 58 8
8 16 23 17 32 0 9 3 2 5 -16 3 -18 -1 -39 -7 -47z m555 -5 c-2 -33 -10 -69
-18 -80 -14 -20 -14 -18 -10 24 4 32 1 53 -11 70 -9 14 -16 28 -16 31 0 10 26
-19 33 -35 3 -10 6 -7 6 8 1 12 -3 22 -9 22 -5 0 -10 5 -10 10 0 6 9 10 19 10
17 0 18 -7 16 -60z m-382 38 c-13 -6 -25 -19 -28 -29 -7 -22 -35 -33 -49 -19
-7 7 -5 10 6 10 9 0 18 7 22 15 3 9 16 20 28 25 32 12 48 11 21 -2z m82 -7
c-6 -5 -21 -11 -35 -15 -21 -5 -20 -3 5 9 35 17 42 18 30 6z m149 -15 c-8 -20
-24 -21 -24 0 0 8 5 12 10 9 6 -3 10 -1 10 6 0 7 2 10 5 7 3 -3 3 -13 -1 -22z
m-377 -8 c-3 -8 -6 -5 -6 6 -1 11 2 17 5 13 3 -3 4 -12 1 -19z m156 -18 c-3
-12 0 -20 6 -20 7 0 11 -6 10 -12 -1 -7 -1 -20 0 -28 1 -13 2 -13 11 0 5 8 12
11 16 7 4 -4 0 -15 -9 -24 -15 -15 -17 -15 -26 10 -6 15 -15 27 -20 27 -13 0
-20 49 -7 54 21 8 24 6 19 -14z m257 16 c0 -3 -4 -8 -10 -11 -5 -3 -10 -1 -10
4 0 6 5 11 10 11 6 0 10 -2 10 -4z m-809 -33 c20 -20 104 -184 101 -195 -1 -5
3 -8 8 -8 6 0 10 -6 10 -13 0 -7 13 -37 29 -67 16 -30 46 -89 66 -130 20 -41
41 -84 48 -95 52 -92 59 -114 47 -150 -8 -24 -21 -39 -38 -46 -15 -5 -36 -14
-47 -19 -33 -17 -148 -50 -156 -45 -4 3 -9 -1 -12 -8 -3 -8 -34 -22 -69 -31
-34 -10 -69 -23 -76 -28 -6 -6 -32 -11 -56 -12 -27 -1 -42 -5 -39 -12 2 -6
-29 -22 -71 -36 -72 -25 -118 -26 -153 -5 -31 19 -310 568 -298 586 3 6 -4 15
-15 21 -24 13 -28 53 -5 44 8 -4 13 -10 10 -14 -3 -5 0 -12 6 -16 6 -3 14 -2
18 4 10 16 164 -36 157 -54 -3 -8 1 -14 8 -14 8 0 16 6 19 13 3 9 12 8 38 -5
21 -10 27 -17 16 -17 -15 -1 -15 -4 -5 -21 9 -14 15 -16 21 -7 7 9 10 9 14 0
2 -7 12 -13 21 -13 13 0 11 4 -6 16 -36 25 -25 32 23 16 25 -8 45 -21 45 -28
0 -8 7 -14 16 -14 8 0 12 5 9 10 -3 6 1 10 9 10 9 0 16 -7 16 -16 0 -10 5 -14
16 -10 8 3 12 2 9 -3 -3 -5 0 -13 6 -17 8 -4 7 -9 -2 -16 -10 -7 -8 -8 7 -3
16 4 23 0 27 -14 3 -11 0 -22 -7 -25 -6 -3 2 -2 18 1 21 4 33 1 42 -12 11 -15
18 -16 45 -6 40 14 42 14 32 -1 -12 -20 -15 -58 -4 -58 5 0 11 -10 13 -21 2
-12 12 -27 23 -33 11 -6 25 -18 32 -27 7 -10 31 -37 53 -60 33 -36 41 -41 50
-29 12 18 13 63 1 56 -4 -3 -19 7 -32 21 l-24 27 28 -17 c15 -10 27 -13 27 -8
0 16 -63 73 -91 83 -27 9 -69 58 -50 58 15 0 22 32 10 46 -8 10 -5 13 18 11
22 -2 28 2 27 18 -1 11 -5 28 -9 37 -6 15 -2 17 26 13 33 -4 49 -19 48 -45 0
-10 -3 -8 -8 5 -6 16 -10 12 -23 -25 -9 -25 -19 -53 -23 -62 -4 -10 -3 -18 3
-18 6 0 15 14 21 30 11 34 16 35 51 14 14 -8 17 -13 8 -10 -10 3 -18 1 -18 -4
0 -6 5 -10 11 -10 5 0 8 -4 4 -9 -3 -5 -1 -12 5 -16 5 -3 10 -1 10 4 0 6 7 11
16 11 8 0 12 4 9 10 -3 6 1 7 9 4 9 -3 16 -12 16 -20 0 -18 10 -17 34 1 17 13
18 16 3 38 -8 13 -35 31 -60 41 -38 14 -46 22 -51 51 -8 42 -34 59 -71 45 -35
-13 -40 -13 -25 5 7 8 16 12 21 9 5 -3 12 2 15 10 3 9 9 14 14 11 10 -6 31 70
24 89 -3 9 -9 16 -13 16 -11 0 -82 -72 -76 -78 3 -3 20 9 38 26 35 34 62 45
34 14 -10 -10 -14 -22 -10 -26 4 -4 0 -4 -10 -1 -12 5 -19 0 -26 -17 -5 -13
-16 -30 -25 -37 -14 -12 -16 -10 -16 12 0 17 -7 28 -21 32 -20 7 -20 9 12 42
21 21 41 32 51 29 11 -2 18 2 18 11 0 9 6 13 15 9 19 -7 20 8 1 23 -7 6 -17
26 -21 44 l-8 32 -7 -45 c-5 -37 -7 -40 -12 -20 l-5 25 -2 -26 c-2 -41 -85
-108 -166 -134 -20 -6 -20 -7 1 -24 16 -12 19 -22 13 -38 -12 -32 -25 -35 -43
-9 -8 14 -32 30 -51 37 -27 10 -35 18 -32 31 8 29 -10 21 -21 -9 l-10 -28 -2
30 c-1 17 -4 24 -7 18 -2 -7 -9 -13 -14 -13 -6 0 -7 5 -4 10 3 6 1 10 -4 10
-6 0 -11 -7 -11 -15 0 -8 -4 -15 -9 -15 -5 0 -7 10 -4 23 3 14 2 18 -4 10 -7
-9 -42 -2 -147 33 -97 31 -142 42 -150 34 -19 -19 -29 -10 -11 10 10 11 22 20
28 20 5 0 69 21 141 46 72 26 176 62 231 81 55 20 109 39 120 44 93 41 163 45
196 12z m424 -69 c16 -10 21 -21 17 -36 -3 -14 2 -26 19 -39 13 -10 18 -19 12
-19 -7 0 -12 -3 -12 -7 5 -32 -7 -17 -39 47 -21 43 -35 84 -32 95 4 18 5 18 8
-3 2 -12 14 -29 27 -38z m428 49 c-7 -2 -19 -2 -25 0 -7 3 -2 5 12 5 14 0 19
-2 13 -5z m107 -19 c11 -12 11 -15 -1 -12 -10 2 -13 -5 -11 -24 2 -14 -2 -29
-9 -34 -8 -5 -9 -3 -4 6 5 9 4 11 -3 6 -7 -4 -12 -14 -12 -22 0 -9 5 -12 12
-8 6 4 9 3 5 -2 -3 -5 -2 -28 2 -51 11 -59 -10 -63 -31 -7 -8 24 -11 44 -6 44
5 0 6 5 3 11 -5 8 33 109 41 109 1 0 7 -7 14 -16z m-133 -26 c-3 -7 -5 -2 -5
12 0 14 2 19 5 13 2 -7 2 -19 0 -25z m320 18 c-3 -7 0 -19 6 -25 8 -8 8 -11 0
-11 -6 0 -19 7 -28 16 -26 26 -39 3 -19 -33 18 -31 14 -63 -8 -63 -16 0 -42
39 -32 48 4 4 8 3 11 -3 8 -23 22 -39 28 -33 4 3 1 17 -6 30 -18 31 -20 48 -8
70 12 22 64 26 56 4z m80 -3 c-4 -3 -2 -12 4 -20 9 -9 8 -13 0 -13 -6 0 -11 2
-11 4 0 2 -3 11 -6 20 -4 10 -1 16 7 16 7 0 9 -3 6 -7z m-567 -18 c0 -8 6 -15
13 -15 8 0 7 -4 -3 -10 -14 -9 -7 -12 16 -9 7 1 24 -22 24 -33 0 -4 -10 -13
-22 -19 -18 -9 -24 -8 -34 6 -12 16 -15 15 -42 -14 -25 -28 -30 -30 -42 -16
-10 12 -10 15 3 15 20 0 39 24 31 43 -10 28 -33 27 -63 -3 -35 -35 -49 -39
-27 -8 9 12 16 33 16 45 0 27 3 28 33 9 12 -8 37 -17 56 -21 33 -7 33 -6 27
19 -4 15 -2 26 4 26 5 0 10 -7 10 -15z m405 -6 c-6 -30 -15 -37 -15 -11 0 11
-8 23 -17 25 -12 3 -8 5 9 6 22 1 26 -3 23 -20z m132 -6 c1 -22 -1 -24 -8 -10
-6 9 -7 22 -4 27 9 14 10 13 12 -17z m-207 7 c0 -5 -5 -10 -11 -10 -5 0 -7 5
-4 10 3 6 8 10 11 10 2 0 4 -4 4 -10z m-186 -25 c11 -8 17 -17 14 -20 -9 -10
-71 10 -76 23 -5 17 39 15 62 -3z m437 -12 c-18 -8 -35 -12 -38 -9 -7 7 51 33
62 27 5 -2 -6 -11 -24 -18z m-252 0 c-13 -15 -11 -16 14 -9 30 7 62 -9 51 -25
-7 -13 -34 -11 -34 2 0 5 5 7 12 3 7 -4 8 -3 4 4 -7 11 -36 6 -36 -7 1 -22 20
-33 46 -27 27 6 28 5 10 -9 -29 -22 -38 -19 -69 20 -23 29 -26 39 -17 50 7 8
17 15 22 15 6 0 4 -7 -3 -17z m186 -3 c-3 -5 0 -10 7 -11 7 0 4 -4 -7 -9 -28
-12 -32 -12 -32 5 0 8 4 12 9 9 4 -3 8 0 8 5 0 6 5 11 11 11 5 0 7 -4 4 -10z
m-305 -20 c0 -6 -11 -15 -24 -22 -34 -15 -39 -35 -13 -53 19 -13 20 -17 7 -25
-10 -6 -11 -10 -2 -10 6 0 12 -4 12 -10 0 -5 -6 -10 -12 -10 -19 1 -83 58 -75
66 4 4 7 2 7 -4 0 -7 7 -12 15 -12 8 0 15 5 15 11 0 5 -4 7 -10 4 -19 -12 -10
4 18 32 15 15 30 27 35 25 4 -1 7 3 7 8 0 6 5 10 10 10 6 0 10 -5 10 -10z
m463 -21 c22 -39 22 -49 -1 -49 -15 0 -18 6 -14 30 3 18 0 30 -7 30 -6 0 -11
5 -11 10 0 19 15 10 33 -21z m-44 -12 c0 -9 -2 -8 -6 1 -9 22 -23 2 -23 -34 0
-19 -4 -34 -9 -34 -5 0 -17 -3 -26 -6 -13 -5 -15 -2 -9 22 12 48 76 93 73 51z
m-291 -33 c2 -1 -4 -4 -13 -8 -9 -3 -13 -2 -10 4 3 6 -1 13 -9 16 -9 3 -16 11
-16 17 0 5 10 2 23 -9 12 -10 23 -19 25 -20z m-268 18 c0 -4 -9 -13 -20 -20
-21 -13 -27 -47 -10 -57 12 -7 13 -25 3 -25 -5 0 -16 11 -25 25 -18 23 -17 25
10 53 27 30 42 38 42 24z m150 4 c0 -9 -30 -14 -35 -6 -4 6 3 10 14 10 12 0
21 -2 21 -4z m308 -7 c-20 -8 -28 -19 -33 -49 -4 -21 -14 -41 -22 -44 -22 -9
-25 -3 -17 28 7 30 58 76 82 75 10 0 6 -5 -10 -10z m-558 -20 c0 -6 -13 -23
-28 -37 -26 -25 -33 -62 -11 -62 5 0 9 -7 9 -16 0 -13 6 -15 28 -9 32 8 19 -9
-16 -20 -19 -6 -25 -1 -41 36 -16 35 -17 44 -6 56 8 7 18 13 23 13 5 0 13 11
16 25 6 25 26 35 26 14z m-106 -26 c24 10 26 -5 3 -25 -12 -11 -17 -17 -10
-14 7 4 9 -1 6 -14 -3 -11 -7 -20 -9 -20 -5 0 -44 82 -44 93 0 6 9 2 20 -8 10
-9 26 -15 34 -12z m360 11 c6 -16 0 -34 -12 -34 -4 0 -7 11 -7 25 0 28 10 33
19 9z m-150 -10 c3 -9 6 -24 6 -35 0 -11 7 -19 16 -19 11 0 15 6 11 19 -4 17
-2 18 14 8 25 -16 24 -24 -5 -31 -13 -3 -31 -8 -39 -12 -12 -4 -16 5 -19 40
-3 46 4 60 16 30z m1959 2 c3 -8 9 -42 13 -75 8 -72 -6 -80 -50 -30 -15 17
-29 29 -31 27 -2 -2 0 -20 5 -41 5 -23 4 -39 -2 -43 -10 -6 -128 103 -128 118
0 17 26 6 57 -24 38 -37 46 -34 33 12 -15 51 -1 55 42 13 l41 -38 -7 48 c-4
36 -2 47 8 47 8 0 16 -6 19 -14z m-2009 -65 c22 -10 25 -15 15 -22 -22 -14
-39 -11 -39 7 0 8 -4 12 -10 9 -5 -3 -10 3 -10 14 0 11 -5 23 -10 26 -6 4 -7
11 -4 17 3 5 11 -1 18 -14 6 -12 24 -29 40 -37z m587 16 c-13 -13 -15 1 -4 30
7 17 8 17 11 -1 2 -10 -1 -23 -7 -29z m89 29 c0 -25 -34 -54 -70 -61 -33 -6
-34 -5 -15 10 11 9 20 21 20 28 0 6 9 13 20 15 11 2 24 8 30 13 12 12 15 11
15 -5z m-306 -23 c-9 -38 -13 -43 -30 -43 -19 0 -18 35 2 54 24 24 35 19 28
-11z m-54 13 c0 -2 -7 -7 -16 -10 -8 -3 -12 -2 -9 4 6 10 25 14 25 6z m-46
-48 c-6 -30 -27 -58 -45 -58 -14 0 14 79 30 83 9 3 17 5 18 6 1 0 0 -14 -3
-31z m222 -5 c-3 -16 -3 -22 0 -15 3 7 19 19 35 27 26 14 29 14 39 -6 7 -11
10 -22 8 -23 -5 -5 -101 -36 -108 -36 -10 0 -5 32 8 58 17 30 25 28 18 -5z
m-1301 7 c-3 -5 -10 -10 -16 -10 -5 0 -9 5 -9 10 0 6 7 10 16 10 8 0 12 -4 9
-10z m976 -52 c-4 -19 -15 -34 -29 -39 -22 -8 -31 4 -11 16 6 4 8 13 5 21 -3
7 3 18 12 23 9 6 13 11 9 11 -5 0 -5 5 -1 11 12 19 22 -10 15 -43z m-1011 7
c0 -8 -4 -15 -10 -15 -5 0 -7 7 -4 15 4 8 8 15 10 15 2 0 4 -7 4 -15z m1265
-1 c-9 -7 -14 -17 -11 -22 9 -15 -11 -26 -118 -62 -69 -23 -101 -30 -104 -22
-2 7 -8 12 -14 12 -5 0 -7 -8 -3 -19 4 -14 -1 -21 -22 -27 -35 -9 -33 -9 -63
-21 -64 -27 -99 -22 -87 11 8 21 35 20 39 -1 3 -13 9 -8 22 19 18 37 40 44 30
10 -5 -16 -5 -16 5 0 6 9 24 19 40 23 18 4 31 14 35 28 5 17 8 19 15 8 6 -10
13 -11 29 -2 28 15 45 14 39 -3 -4 -10 0 -12 14 -9 20 5 27 23 9 23 -5 0 -10
4 -10 9 0 4 30 16 66 26 36 10 61 21 55 25 -7 4 2 7 20 7 28 0 30 -2 14 -13z
m-337 -1 c-11 -3 -18 -14 -18 -28 0 -37 -11 -55 -32 -55 -14 0 -18 5 -14 16 3
9 6 20 6 24 0 15 43 50 59 49 13 -1 12 -2 -1 -6z m-819 -35 c14 -22 -4 -34
-25 -17 -13 10 -17 10 -25 -2 -5 -8 -9 -22 -9 -31 0 -12 -8 -18 -24 -18 -39 0
-48 21 -24 58 18 28 25 32 58 30 23 -2 43 -10 49 -20z m736 2 c-3 -5 -11 -10
-16 -10 -6 0 -7 5 -4 10 3 6 11 10 16 10 6 0 7 -4 4 -10z m-35 -35 c0 -14 -4
-25 -9 -25 -12 0 -23 29 -15 41 10 18 24 9 24 -16z m3520 -9 c0 -15 -7 -26
-20 -29 -23 -6 -27 -27 -5 -27 8 0 15 5 15 10 0 6 5 10 11 10 8 0 8 -5 -1 -15
-16 -19 -46 -19 -53 -1 -6 16 11 36 30 36 7 0 13 9 13 20 0 11 2 20 5 20 3 0
5 -11 5 -24z m74 -1 c3 -8 1 -15 -4 -15 -6 0 -10 5 -10 10 0 19 -21 10 -30
-12 -9 -23 -9 -23 -9 -1 -1 31 42 46 53 18z m-150 -50 c-4 -8 -8 -15 -10 -15
-2 0 -4 7 -4 15 0 8 4 15 10 15 5 0 7 -7 4 -15z m-3476 -20 c-3 -3 -9 2 -12
12 -6 14 -5 15 5 6 7 -7 10 -15 7 -18z m3424 3 c-17 -17 -15 -26 6 -31 13 -4
11 -5 -5 -6 -16 -1 -23 5 -23 17 0 19 20 45 29 37 2 -3 -1 -11 -7 -17z m-3375
-8 c-1 -11 -5 -20 -9 -20 -4 0 -8 9 -8 20 0 11 4 20 9 20 6 0 9 -9 8 -20z
m3330 -17 c0 -16 -2 -22 -4 -15 -3 6 -9 10 -14 6 -13 -8 -11 10 3 24 16 16 16
16 15 -15z m-2350 -145 c13 -12 23 -26 23 -32 0 -6 7 -23 14 -38 13 -25 13
-28 0 -28 -8 0 -28 -7 -44 -15 -37 -19 -71 -11 -105 22 -24 25 -33 66 -17 89
26 38 89 39 129 2z m2796 -89 c15 -16 27 -35 27 -43 0 -22 -33 -55 -61 -61
-23 -6 -29 0 -63 55 -21 34 -36 63 -34 65 2 2 15 9 28 14 36 15 71 4 103 -30z
m-1343 -160 c0 -4 -13 -9 -30 -11 -16 -3 -30 -1 -30 4 0 7 15 12 32 9 4 0 5 6
1 15 -5 13 -8 13 -15 2 -7 -9 -8 -8 -4 5 3 10 6 24 6 30 0 7 9 -1 20 -18 11
-16 20 -33 20 -36z m254 -205 c23 -9 20 -24 -5 -24 -31 0 -17 -24 17 -28 54
-6 83 -54 50 -81 -19 -16 -68 -10 -74 7 -3 9 3 13 19 10 15 -2 25 3 27 13 2
12 -7 18 -37 23 -52 8 -70 37 -41 66 22 22 22 22 44 14z m-1174 -98 c0 -9 -7
-12 -20 -9 -14 4 -20 0 -20 -11 0 -9 6 -16 13 -16 8 0 9 -3 1 -8 -6 -4 -14
-14 -17 -22 -5 -15 -6 -13 -11 40 -1 17 22 39 42 40 6 0 12 -6 12 -14z m-75
-26 c3 -5 1 -10 -4 -10 -6 0 -11 5 -11 10 0 6 2 10 4 10 3 0 8 -4 11 -10z
m-73 -22 c-5 -7 -12 -22 -15 -33 -4 -16 -5 -14 -6 7 -1 22 7 33 28 37 2 1 -1
-5 -7 -11z m41 -8 c3 -11 1 -20 -4 -20 -5 0 -9 2 -9 4 0 2 -3 11 -6 20 -3 9
-2 16 4 16 5 0 12 -9 15 -20z m-100 -17 c-7 -3 -13 -11 -13 -18 0 -7 6 -16 13
-18 9 -4 9 -6 -1 -6 -19 -1 -26 27 -12 44 7 9 16 13 19 9 3 -4 0 -9 -6 -11z
m-60 -28 c-3 -9 -8 -14 -10 -11 -3 3 -2 9 2 15 9 16 15 13 8 -4z m3027 1 c0
-10 -63 -35 -73 -29 -5 3 -7 1 -3 -5 3 -6 2 -13 -4 -17 -6 -4 -10 4 -10 19 0
20 6 25 33 29 17 2 38 5 45 5 6 1 12 0 12 -2z m-3000 -10 c0 -3 -4 -8 -10 -11
-5 -3 -10 -1 -10 4 0 6 5 11 10 11 6 0 10 -2 10 -4z m-1775 -76 c5 -15 12 -18
34 -14 18 4 33 0 44 -11 32 -32 15 -75 -30 -75 -18 0 -29 13 -53 60 -23 45
-27 60 -16 60 8 0 17 -9 21 -20z m-79 -55 c43 22 60 19 74 -15 11 -27 11 -32
-6 -45 -27 -20 -52 -18 -66 5 -17 26 -32 26 -18 0 19 -36 -1 -43 -24 -8 -39
58 -42 96 -6 63 15 -14 20 -14 46 0z m2282 -107 c39 -31 59 -55 54 -60 -6 -6
-17 -5 -30 3 -25 16 -72 -1 -72 -26 0 -8 -6 -15 -14 -15 -9 0 -15 18 -20 53
-14 116 -8 119 82 45z m-1411 -125 c1 -33 0 -34 -7 -13 -11 33 -12 62 -2 56 4
-2 8 -22 9 -43z m-39 -14 c-10 -5 -18 -14 -18 -19 0 -5 8 -11 18 -14 10 -3 7
-4 -8 -3 -14 1 -36 -6 -50 -16 -28 -20 -40 -22 -40 -6 0 5 4 8 8 5 13 -8 35
11 27 23 -5 9 -10 9 -21 0 -8 -7 -14 -7 -14 -1 0 14 29 24 50 17 11 -3 20 1
24 10 3 8 13 15 23 15 17 -1 17 -1 1 -11z m77 1 c3 -5 2 -10 -4 -10 -5 0 -13
5 -16 10 -3 6 -2 10 4 10 5 0 13 -4 16 -10z m-197 -65 c0 -16 -2 -15 -8 5 -4
14 -8 34 -8 45 0 16 2 15 8 -5 4 -14 8 -34 8 -45z m3092 62 c0 -2 -8 -20 -18
-41 l-18 -37 -13 27 c-6 15 -10 28 -9 29 20 15 58 30 58 22z m-3196 -82 c-4
-8 -11 -15 -16 -15 -6 0 -5 6 2 15 7 8 14 15 16 15 2 0 1 -7 -2 -15z m-34 -29
c0 -18 -21 -36 -42 -36 -23 0 -24 36 -1 48 20 12 43 5 43 -12z m-80 -30 c0
-16 -7 -27 -20 -31 -23 -7 -40 1 -40 18 0 8 3 7 9 -2 13 -21 44 -5 38 19 -3
11 -1 20 4 20 5 0 9 -11 9 -24z m-93 -17 c-22 -13 -22 -26 1 -32 15 -4 15 -5
0 -6 -9 0 -20 4 -23 10 -8 11 25 53 34 43 3 -3 -2 -10 -12 -15z m3951 -30 c-4
-27 0 -35 33 -58 21 -14 38 -29 39 -33 0 -12 -38 -10 -45 2 -12 20 -35 10 -35
-15 0 -16 -6 -25 -15 -25 -11 0 -15 11 -15 39 0 34 -5 43 -30 58 -16 9 -30 21
-30 25 0 12 35 9 48 -4 9 -9 12 -7 12 8 0 24 8 34 28 34 10 0 13 -9 10 -31z
m-1598 -234 c0 -20 -5 -25 -24 -25 -13 0 -33 -3 -43 -6 -12 -3 -11 0 6 13 14
10 30 23 35 30 17 19 26 15 26 -12z m-1764 -97 c14 -27 18 -29 26 -15 12 23
28 21 28 -3 0 -10 9 -24 20 -30 11 -6 18 -15 15 -21 -4 -5 -13 -5 -26 1 -15 9
-19 7 -19 -5 0 -32 -26 -13 -52 38 -30 57 -33 67 -18 67 5 0 17 -14 26 -32z
m-26 -38 c0 -5 -4 -10 -10 -10 -5 0 -10 -9 -10 -21 0 -18 4 -20 25 -15 19 5
25 2 25 -9 0 -12 -8 -15 -32 -13 -25 2 -38 -3 -54 -21 -19 -22 -22 -23 -50
-10 -16 8 -30 21 -32 30 -5 26 27 52 58 46 19 -4 29 0 38 14 13 20 42 26 42 9z
m-157 -55 c30 -62 31 -65 18 -65 -12 0 -71 107 -63 115 11 11 19 3 45 -50z
m2477 -6 l0 -61 35 6 c41 8 48 -9 10 -24 -75 -28 -75 -28 -75 40 l0 62 -31 -7
c-23 -5 -30 -4 -27 6 4 11 56 36 81 38 4 1 7 -27 7 -60z m-2590 -44 c-10 -12
-9 -15 8 -15 24 0 35 -23 19 -39 -6 -6 -20 -11 -31 -11 -20 1 -20 1 -3 14 16
13 16 14 -8 20 -38 10 -32 46 8 46 16 0 17 -3 7 -15z m-38 -41 c11 -23 10 -29
-10 -44 -12 -10 -22 -23 -22 -29 0 -26 -22 -8 -42 35 -19 39 -20 46 -8 54 30
19 70 11 82 -16z m-96 -26 c15 -30 15 -32 -2 -45 -27 -19 -62 -16 -74 8 -15
26 -7 47 22 59 34 13 36 13 54 -22z m4346 -8 c-2 -22 -6 -40 -8 -40 -2 0 -4
18 -4 40 0 22 3 40 8 40 4 0 6 -18 4 -40z m-42 -15 c0 -25 -4 -45 -8 -45 -4 0
-7 17 -6 38 3 52 3 52 9 52 3 0 5 -20 5 -45z m-4410 17 c0 -4 -5 -13 -11 -19
-18 -18 -3 -46 21 -38 22 7 28 -10 6 -18 -18 -7 -60 15 -64 35 -2 8 4 23 13
32 17 17 35 21 35 8z m2193 -47 c8 -8 34 -49 57 -92 24 -43 89 -157 146 -254
131 -225 150 -269 114 -269 -5 0 -33 -11 -62 -24 -60 -27 -190 -83 -353 -151
-469 -198 -1434 -555 -1502 -555 -54 0 -73 25 -208 285 -38 72 -71 135 -75
140 -4 6 -27 45 -50 88 -35 65 -41 83 -32 101 11 24 19 28 372 156 262 96 553
203 625 231 71 27 378 148 520 204 423 169 421 168 448 140z m2167 12 c0 -2
-12 -14 -26 -28 l-27 -24 6 23 c5 22 -8 32 -15 10 -3 -7 -7 -6 -11 5 -5 14 0
17 33 17 22 0 40 -1 40 -3z m-1010 -398 c-34 -16 -41 -22 -30 -29 13 -8 12
-10 -2 -10 -10 0 -18 4 -18 10 0 5 -8 7 -17 3 -16 -6 -16 -4 2 16 11 12 21 18
23 12 2 -7 11 -6 25 4 12 8 31 15 42 14 13 0 4 -8 -25 -20z m-103 -56 c-2 -16
-4 -5 -4 22 0 28 2 40 4 28 2 -13 2 -35 0 -50z m623 -383 c14 -11 22 -20 17
-20 -4 0 -1 -13 8 -30 20 -39 19 -50 -5 -50 -11 0 -20 4 -20 9 0 4 -11 20 -24
34 -22 24 -31 46 -27 70 2 13 25 7 51 -13z m-51 -51 c38 -61 39 -73 6 -67 -18
4 -25 1 -25 -10 0 -10 -6 -12 -22 -8 -42 13 -52 11 -53 -9 0 -25 -32 -32 -38
-8 -3 10 -8 39 -12 65 -7 56 6 69 43 39 74 -59 100 -67 62 -18 -23 29 -27 67
-6 67 7 0 27 -23 45 -51z m477 -234 c-27 -14 -52 -23 -54 -20 -6 5 77 45 93
44 6 0 -12 -11 -39 -24z m-221 -90 c-33 -14 -67 -25 -75 -24 -13 0 -13 1 0 6
8 3 29 11 45 18 42 18 58 23 75 24 8 0 -12 -11 -45 -24z m-97 -30 c-2 -3 -43
-18 -91 -35 -72 -25 -90 -28 -116 -19 -17 6 -31 15 -31 20 0 5 9 4 19 -3 15
-9 32 -9 75 1 31 7 54 16 51 21 -3 4 4 6 14 3 11 -3 28 0 38 6 18 10 51 15 41
6z m-2357 -183 c-7 -2 -18 1 -23 6 -8 8 -4 9 13 5 13 -4 18 -8 10 -11z m72
-74 c10 -16 14 -28 9 -28 -8 0 -32 43 -32 57 0 7 1 6 23 -29z m67 -113 c18
-32 25 -53 16 -46 -9 7 -16 18 -16 23 0 6 -8 22 -18 36 -10 15 -22 36 -26 47
-12 34 10 4 44 -60z m58 -110 c-3 -3 -9 2 -12 12 -6 14 -5 15 5 6 7 -7 10 -15
7 -18z"/>
<path d="M4127 5053 c-3 -5 -2 -15 3 -22 10 -17 43 -6 38 12 -6 15 -34 22 -41
10z"/>
<path d="M5150 5163 c0 -13 5 -23 10 -23 13 0 13 11 0 30 -8 12 -10 11 -10 -7z"/>
<path d="M3336 4881 c-4 -7 -5 -15 -2 -18 9 -9 19 4 14 18 -4 11 -6 11 -12 0z"/>
<path d="M3399 4814 c-10 -12 -10 -18 3 -30 16 -17 48 -9 48 12 0 23 -36 36
-51 18z"/>
<path d="M3248 4739 c-21 -12 -23 -40 -6 -57 19 -19 56 -14 68 8 8 15 6 24
-10 40 -23 23 -28 24 -52 9z"/>
<path d="M3006 4638 c-14 -20 -14 -24 1 -40 21 -24 60 -23 73 2 8 15 6 24 -10
40 -26 26 -45 25 -64 -2z"/>
<path d="M2840 4684 c0 -8 5 -12 10 -9 6 3 10 10 10 16 0 5 -4 9 -10 9 -5 0
-10 -7 -10 -16z"/>
<path d="M2843 4603 c-19 -7 -16 -31 6 -42 26 -14 50 12 31 34 -13 16 -17 17
-37 8z"/>
<path d="M5910 4753 c1 -18 19 -35 29 -28 9 5 9 10 0 21 -12 15 -29 19 -29 7z"/>
<path d="M1986 4403 c-9 -23 3 -35 20 -19 18 18 18 22 0 29 -8 3 -17 -1 -20
-10z"/>
<path d="M2435 4310 c-13 -6 -15 -9 -5 -9 8 0 22 4 30 9 18 12 2 12 -25 0z"/>
<path d="M1777 4363 c-10 -9 -9 -33 1 -33 4 0 8 9 9 20 2 21 0 24 -10 13z"/>
<path d="M1251 4220 c1 -42 1 -43 9 -16 6 17 5 36 0 45 -7 11 -9 3 -9 -29z"/>
<path d="M1072 4150 c-7 -11 -12 -36 -12 -57 0 -20 -7 -44 -15 -53 -18 -20
-25 -68 -10 -70 6 0 13 16 18 37 10 51 27 62 80 52 60 -12 67 -11 67 6 0 8 5
15 10 15 6 0 10 8 10 18 0 14 -2 15 -10 2 -8 -13 -10 -13 -10 1 0 12 -15 19
-52 25 -29 5 -53 14 -53 21 0 21 -11 22 -23 3z"/>
<path d="M1239 4003 l-24 -28 28 24 c25 23 32 31 24 31 -2 0 -14 -12 -28 -27z"/>
<path d="M1346 3978 c-10 -38 -7 -44 10 -19 11 15 13 26 6 33 -6 6 -11 1 -16
-14z"/>
<path d="M1060 3969 c0 -5 5 -7 10 -4 6 3 10 8 10 11 0 2 -4 4 -10 4 -5 0 -10
-5 -10 -11z"/>
<path d="M639 3953 c-12 -14 -12 -15 0 -9 8 5 16 4 21 -4 5 -9 9 -9 14 -1 4 6
2 11 -4 11 -6 0 -8 5 -5 10 10 17 -12 11 -26 -7z"/>
<path d="M705 3900 c-3 -5 -1 -10 4 -10 6 0 11 5 11 10 0 6 -2 10 -4 10 -3 0
-8 -4 -11 -10z"/>
<path d="M1322 3740 c-5 -22 -6 -37 -1 -34 5 3 9 -4 9 -15 0 -12 5 -21 10 -21
6 0 10 25 10 55 0 65 -13 72 -28 15z"/>
<path d="M830 3741 c0 -10 19 -25 25 -20 1 2 -3 10 -11 17 -8 7 -14 8 -14 3z"/>
<path d="M975 3730 c-3 -5 -1 -10 4 -10 6 0 11 5 11 10 0 6 -2 10 -4 10 -3 0
-8 -4 -11 -10z"/>
<path d="M1032 3628 c-17 -17 -15 -35 6 -50 16 -12 42 -51 42 -63 0 -3 -9 -5
-20 -5 -14 0 -18 5 -13 18 4 10 2 14 -3 9 -5 -5 -9 -18 -9 -30 0 -11 -6 -22
-13 -24 -7 -3 -10 1 -6 10 8 21 -25 82 -37 70 -5 -5 -13 -27 -16 -49 -6 -36
-5 -38 10 -25 15 12 17 11 17 -3 0 -12 -7 -16 -22 -14 -16 2 -31 20 -51 61
-24 49 -32 57 -42 45 -7 -7 -16 -24 -20 -38 -5 -19 -4 -21 4 -10 9 13 11 12
12 -5 1 -11 2 -26 2 -32 -1 -7 3 -10 8 -7 15 9 23 -27 8 -37 -12 -8 -12 -10 1
-8 8 1 30 -5 49 -13 32 -14 37 -14 65 1 17 10 36 28 43 41 13 27 53 38 53 15
0 -17 25 -20 35 -5 4 6 11 8 17 4 6 -4 8 3 6 17 -2 13 -9 23 -16 22 -6 -2 -25
24 -42 57 -30 60 -45 71 -68 48z"/>
<path d="M793 3615 c-7 -8 -9 -16 -4 -19 5 -3 12 1 15 10 8 22 4 25 -11 9z"/>
<path d="M1518 3619 c6 -7 12 -21 12 -30 0 -10 -6 -20 -12 -22 -7 -3 -8 -6 -3
-6 35 -2 41 51 7 64 -14 5 -15 4 -4 -6z"/>
<path d="M926 3607 c-18 -14 -19 -49 -1 -47 6 1 13 -9 16 -22 6 -22 6 -22 18
6 22 55 4 90 -33 63z"/>
<path d="M1320 3520 c0 -5 5 -10 11 -10 5 0 7 5 4 10 -3 6 -8 10 -11 10 -2 0
-4 -4 -4 -10z"/>
<path d="M930 3380 c0 -5 7 -10 16 -10 8 0 12 5 9 10 -3 6 -10 10 -16 10 -5 0
-9 -4 -9 -10z"/>
<path d="M1945 4150 c-3 -5 0 -10 9 -10 8 0 16 -5 18 -12 3 -9 6 -9 11 -1 4 7
-1 17 -12 23 -13 7 -22 7 -26 0z"/>
<path d="M2226 3955 c-3 -9 -6 -22 -5 -28 0 -7 5 -1 10 12 5 13 8 26 5 28 -2
2 -6 -3 -10 -12z"/>
<path d="M2510 3940 c-9 -6 -10 -10 -3 -10 6 0 15 5 18 10 8 12 4 12 -15 0z"/>
<path d="M2115 3800 c-3 -5 -1 -10 4 -10 6 0 11 5 11 10 0 6 -2 10 -4 10 -3 0
-8 -4 -11 -10z"/>
<path d="M2021 3854 c0 -11 3 -14 6 -6 3 7 2 16 -1 19 -3 4 -6 -2 -5 -13z"/>
<path d="M2852 3588 c-19 -19 -14 -45 14 -67 28 -22 54 -27 54 -11 0 6 -5 10
-11 10 -6 0 -9 6 -6 13 2 6 11 11 21 9 22 -4 20 14 -4 38 -23 23 -50 26 -68 8z"/>
<path d="M5656 3512 c-3 -5 6 -25 20 -45 27 -40 54 -41 54 -2 0 37 -57 73 -74
47z"/>
<path d="M1497 2814 c-9 -10 2 -24 19 -24 8 0 14 7 14 15 0 15 -21 21 -33 9z"/>
<path d="M1400 2776 c0 -15 24 -28 34 -19 13 14 5 33 -14 33 -11 0 -20 -6 -20
-14z"/>
<path d="M3610 2687 c0 -19 10 -27 26 -20 11 4 12 9 3 19 -15 18 -29 18 -29 1z"/>
<path d="M1915 2439 c-4 -6 -5 -12 -2 -15 7 -7 37 7 37 17 0 13 -27 11 -35 -2z"/>
<path d="M2246 1953 c-13 -14 -5 -33 14 -33 11 0 20 6 20 14 0 15 -24 28 -34
19z"/>
<path d="M1982 1843 c5 -26 38 -29 38 -4 0 15 -6 21 -21 21 -14 0 -19 -5 -17
-17z"/>
<path d="M1884 1819 c-9 -15 11 -33 30 -26 9 4 13 13 10 22 -7 17 -30 20 -40
4z"/>
<path d="M6373 4153 c-15 -5 -18 -33 -4 -33 13 0 33 28 24 33 -4 2 -14 2 -20
0z"/>
</g>
</svg>
