<svg width="56" height="56" viewBox="0 0 56 56" fill="none" xmlns="http://www.w3.org/2000/svg">
<path d="M43.5556 12.4445H12.4445V43.5556H43.5556V12.4445Z" fill="#F7DF1E"/>
<path d="M33.3432 36.7502C33.9699 37.7734 34.7852 38.5255 36.2272 38.5255C37.4385 38.5255 38.2123 37.92 38.2123 37.0835C38.2123 36.081 37.4173 35.726 36.0839 35.1427L35.3531 34.8292C33.2435 33.9304 31.842 32.8045 31.842 30.4242C31.842 28.2316 33.5126 26.5625 36.1235 26.5625C37.9822 26.5625 39.3185 27.2094 40.2815 28.9032L38.0049 30.365C37.5037 29.4662 36.963 29.1121 36.1235 29.1121C35.2672 29.1121 34.7244 29.6553 34.7244 30.365C34.7244 31.242 35.2677 31.5971 36.522 32.1403L37.2528 32.4534C39.7368 33.5185 41.1393 34.6045 41.1393 37.046C41.1393 39.6781 39.0716 41.12 36.2948 41.12C33.5798 41.12 31.8257 39.8262 30.9674 38.1304L33.3432 36.7502ZM23.0158 37.0035C23.4751 37.8183 23.8928 38.5072 24.8973 38.5072C25.8578 38.5072 26.4637 38.1314 26.4637 36.6702V26.7294H29.3872V36.7097C29.3872 39.7368 27.6123 41.1146 25.0217 41.1146C22.681 41.1146 21.3254 39.9032 20.636 38.4442L23.0158 37.0035Z" fill="black"/>
</svg>
