<svg width="56" height="56" viewBox="0 0 56 56" fill="none" xmlns="http://www.w3.org/2000/svg">
<path d="M21.9019 38.514C21.8788 38.4741 21.8582 38.4329 21.8402 38.3906C21.716 38.1098 21.6778 37.7998 21.7303 37.4983H14.3754L25.3057 18.7165L28.8941 24.876L29.9344 23.0785L26.8063 17.6979C26.6564 17.4223 26.4381 17.1879 26.1715 17.0159C25.9049 16.8439 25.5983 16.74 25.2799 16.7135C24.9621 16.7276 24.6548 16.8285 24.3929 17.0047C24.1309 17.1809 23.9249 17.4254 23.7982 17.7103L12.7251 36.7198C12.5596 36.9882 12.4641 37.2922 12.4472 37.6051C12.4302 37.9179 12.4923 38.2301 12.6279 38.514C12.7982 38.7762 13.0402 38.9867 13.3266 39.1215C13.613 39.2564 13.9324 39.3104 14.2486 39.2772H23.5231C23.2069 39.3109 22.8873 39.2572 22.6008 39.1222C22.3143 38.9873 22.0723 38.7766 21.9024 38.514H21.9019Z" fill="#00C492"/>
<path d="M43.2246 36.7193L34.1251 21.0688C33.9759 20.7903 33.7572 20.5531 33.4892 20.3788C33.2213 20.2046 32.9127 20.0991 32.592 20.0721C32.2746 20.0855 31.9675 20.1858 31.7057 20.3614C31.4439 20.5371 31.2379 20.7811 31.1113 21.0655L29.9344 23.078L30.9815 24.876L32.6017 22.0751L41.6039 37.4978H38.1808C38.2245 37.7527 38.1999 38.0143 38.1093 38.2572C38.0902 38.3109 38.0663 38.3628 38.0378 38.4124L38.0087 38.4694C37.8227 38.7258 37.5749 38.9336 37.2871 39.0744C36.9994 39.2151 36.6805 39.2844 36.3588 39.2763H41.7138C42.0356 39.2847 42.3545 39.2155 42.6423 39.0747C42.9301 38.9339 43.1779 38.726 43.3637 38.4694C43.5103 38.1941 43.575 37.8843 43.5504 37.5749C43.5259 37.2656 43.413 36.9692 43.2246 36.7193Z" fill="#008776"/>
<path d="M38.0092 38.4699L38.0384 38.4129C38.0667 38.3633 38.0904 38.3114 38.1093 38.2577C38.1999 38.0148 38.2245 37.7532 38.1808 37.4983C38.1303 37.2233 38.0291 36.9596 37.8823 36.7198L30.9883 24.876L29.9349 23.0785L28.8878 24.876L21.9962 36.7198C21.8624 36.9625 21.7725 37.2258 21.7303 37.4983C21.6748 37.7991 21.7098 38.1092 21.8309 38.3911C21.8489 38.4334 21.8695 38.4746 21.8927 38.5145C22.063 38.7766 22.3051 38.987 22.5915 39.1217C22.8779 39.2565 23.1972 39.3104 23.5134 39.2772H36.3491C36.6724 39.2866 36.9931 39.2178 37.2826 39.077C37.5721 38.9363 37.8215 38.7279 38.0087 38.4703L38.0092 38.4699ZM29.9344 26.6739L36.2359 37.4978H23.6359L29.9344 26.6739Z" fill="#2D4A5D"/>
</svg>
