<svg width="56" height="56" viewBox="0 0 56 56" fill="none" xmlns="http://www.w3.org/2000/svg">
<path d="M28 18.6694C23.8517 18.6694 21.2592 20.743 20.222 24.8897C21.7778 22.8161 23.5926 22.0389 25.6666 22.5571C26.85 22.8527 27.6958 23.7113 28.6322 24.6613C30.1572 26.2089 31.9223 28 35.778 28C39.9259 28 42.5188 25.9265 43.5556 21.7794C42.0002 23.8529 40.1854 24.6306 38.111 24.1124C36.928 23.8167 36.0822 22.9581 35.1458 22.0081C33.6208 20.4605 31.8553 18.6694 28 18.6694ZM20.222 28C16.0742 28 13.4812 30.0736 12.4445 34.2207C13.9998 32.1471 15.8147 31.3695 17.889 31.888C19.0721 32.1841 19.9178 33.0423 20.8542 33.9919C22.3792 35.5395 24.1447 37.331 28 37.331C32.1483 37.331 34.7408 35.2575 35.778 31.1104C34.2222 33.1839 32.4074 33.9616 30.3334 33.443C29.15 33.1477 28.3042 32.2887 27.3678 31.3391C25.8428 29.7915 24.0778 28 20.222 28Z" fill="#06B6D4"/>
</svg>
