<svg width="56" height="56" viewBox="0 0 56 56" fill="none" xmlns="http://www.w3.org/2000/svg">
<path d="M12.4445 12.4447H43.5556V43.5558H12.4445V12.4447Z" fill="#017ACB"/>
<path d="M27.3827 23.9655H28.875V26.5419H24.8403V38.0044L24.7334 38.0336C24.5875 38.0725 22.6674 38.0725 22.2542 38.0287L21.9236 37.9996V26.5419H17.8889V23.9655L19.1674 23.9509C19.8674 23.9412 21.666 23.9412 23.1632 23.9509C24.6605 23.9607 26.5563 23.9655 27.3827 23.9655ZM38.7723 36.7891C38.1792 37.4162 37.5424 37.7662 36.4827 38.053C36.0209 38.1794 35.9431 38.1843 34.9028 38.1794C33.8626 38.1746 33.7799 38.1745 33.2744 38.0433C31.9667 37.7079 30.9119 37.0516 30.1924 36.1232C29.9882 35.8607 29.6528 35.3162 29.6528 35.2482C29.6528 35.2287 29.7014 35.185 29.7646 35.1558C29.8278 35.1266 29.9591 35.044 30.066 34.9808C30.173 34.9176 30.3674 34.8009 30.4987 34.7329C30.6299 34.6648 31.0091 34.4412 31.3396 34.2419C31.6702 34.0426 31.9716 33.8822 32.0056 33.8822C32.0396 33.8822 32.1028 33.9502 32.1514 34.0329C32.4431 34.5239 33.1237 35.1509 33.6049 35.3648C33.9014 35.4912 34.5577 35.6322 34.8737 35.6322C35.1653 35.6322 35.7001 35.5058 35.9869 35.3746C36.2931 35.2336 36.4487 35.0926 36.6334 34.8107C36.7598 34.6114 36.7744 34.5579 36.7695 34.1787C36.7695 33.8287 36.7501 33.7315 36.6528 33.5711C36.3806 33.1239 36.0112 32.8905 34.5139 32.2294C32.9681 31.544 32.273 31.1357 31.7091 30.5864C31.291 30.178 31.2084 30.0662 30.9459 29.5558C30.6056 28.8996 30.5619 28.6857 30.557 27.7086C30.5521 27.0232 30.5667 26.7996 30.6396 26.5662C30.7417 26.2162 31.0723 25.5405 31.223 25.3704C31.5341 25.0058 31.6459 24.894 31.8646 24.7141C32.5257 24.1697 33.5563 23.81 34.5431 23.7759C34.6549 23.7759 35.0244 23.7954 35.3695 23.8197C36.3612 23.9023 37.0369 24.1454 37.6883 24.6655C38.1792 25.0544 38.923 25.9683 38.8501 26.0898C38.8015 26.1627 36.8619 27.4558 36.7355 27.4947C36.6577 27.519 36.6042 27.4898 36.4973 27.3634C35.8362 26.5711 35.5688 26.4009 34.9271 26.3621C34.4702 26.3329 34.2271 26.3864 33.9209 26.5905C33.6001 26.8044 33.4445 27.1301 33.4445 27.5822C33.4494 28.2433 33.7021 28.5544 34.6355 29.0162C35.2383 29.3127 35.7535 29.5558 35.7924 29.5558C35.8508 29.5558 37.1001 30.178 37.4258 30.3725C38.9424 31.262 39.5598 32.1759 39.7202 33.7509C39.8369 34.937 39.5015 36.0211 38.7723 36.7891Z" fill="#1E2235"/>
</svg>
