<svg width="56" height="56" viewBox="0 0 56 56" fill="none" xmlns="http://www.w3.org/2000/svg">
<path d="M15.9803 31.0292C17.6518 31.0292 19.0068 29.6741 19.0068 28.0026C19.0068 26.3311 17.6518 24.9761 15.9803 24.9761C14.3088 24.9761 12.9538 26.3311 12.9538 28.0026C12.9538 29.6741 14.3088 31.0292 15.9803 31.0292Z" fill="#FF6309"/>
<path d="M37.6824 43.5558C39.354 43.5558 40.7091 42.2007 40.7091 40.5291C40.7091 38.8574 39.354 37.5023 37.6824 37.5023C36.0108 37.5023 34.6557 38.8574 34.6557 40.5291C34.6557 42.2007 36.0108 43.5558 37.6824 43.5558Z" fill="#FFB515"/>
<path d="M37.6798 18.4978C39.3513 18.4978 40.7063 17.1427 40.7063 15.4712C40.7063 13.7997 39.3513 12.4447 37.6798 12.4447C36.0083 12.4447 34.6533 13.7997 34.6533 15.4712C34.6533 17.1427 36.0083 18.4978 37.6798 18.4978Z" fill="#C90016"/>
<path d="M30.4479 20.5135C34.2165 20.5135 37.3432 23.3118 37.8611 26.9397H43.0462C42.8104 24.089 41.6289 21.4319 39.6528 19.3366C38.3872 19.981 36.831 19.9934 35.5091 19.2304C34.1862 18.4664 33.4187 17.1118 33.3451 15.692C32.3951 15.4708 31.4229 15.3593 30.4475 15.3597C28.5554 15.3597 26.727 15.7726 25.0642 16.5558L27.6607 21.0522C28.5466 20.6956 29.4929 20.5127 30.4479 20.5135Z" fill="#FF6309"/>
<path d="M22.9592 28.0026C22.9592 25.6166 24.0807 23.4881 25.8239 22.1157L23.2284 17.6199C22.6136 18.0496 22.0377 18.5323 21.5073 19.0626C20.0052 20.5646 18.9281 22.3781 18.3354 24.3574C19.5296 25.1309 20.3204 26.4738 20.3204 28.0026C20.3204 29.531 19.5296 30.8741 18.3354 31.6474C18.9281 33.6267 20.0052 35.44 21.5073 36.9424C22.0373 37.4725 22.6127 37.9551 23.227 38.3847L25.8229 33.8883C24.08 32.5161 22.9592 30.3878 22.9592 28.0026Z" fill="#FFB515"/>
<path d="M37.8614 29.0621C37.345 32.6912 34.2176 35.4913 30.4479 35.4913C29.4629 35.4913 28.5216 35.2996 27.6597 34.9522L25.0634 39.4488C26.7258 40.2324 28.5552 40.6455 30.4477 40.6455C31.4364 40.6455 32.408 40.5315 33.3475 40.3128C33.4198 38.8912 34.1873 37.5341 35.5112 36.7697C36.8335 36.0063 38.3904 36.0182 39.6559 36.6641C41.6303 34.5684 42.8109 31.9117 43.0457 29.0621H37.8614Z" fill="#C90016"/>
</svg>
