<svg width="57" height="56" viewBox="0 0 57 56" fill="none" xmlns="http://www.w3.org/2000/svg">
<path d="M43.4115 17.0492L28.9839 43.1495C28.686 43.6884 27.9207 43.6915 27.6183 43.1553L12.9047 17.0516C12.5753 16.4673 13.0692 15.7595 13.7238 15.8779L28.1669 18.4896C28.259 18.5062 28.3534 18.5061 28.4454 18.4891L42.5864 15.8816C43.2388 15.7613 43.735 16.4637 43.4115 17.0492Z" fill="url(#paint0_linear_1_5764)"/>
<path d="M35.0468 12.4521L24.37 14.5686C24.2847 14.5856 24.2074 14.6307 24.1502 14.6969C24.093 14.7631 24.0592 14.8467 24.054 14.9345L23.3973 26.1564C23.3937 26.2179 23.4043 26.2795 23.4283 26.3361C23.4523 26.3928 23.4891 26.443 23.5356 26.4828C23.5821 26.5226 23.6372 26.5509 23.6965 26.5654C23.7557 26.5799 23.8174 26.5802 23.8768 26.5664L26.8494 25.8723C27.1275 25.8074 27.3789 26.0553 27.3216 26.3382L26.4385 30.7134C26.3791 31.0079 26.6523 31.2596 26.9365 31.1722L28.7726 30.6079C29.0572 30.5205 29.3307 30.773 29.2705 31.0677L27.867 37.9401C27.7792 38.37 28.3444 38.6044 28.5801 38.2359L28.7376 37.9897L37.4376 20.4243C37.5834 20.1302 37.332 19.7948 37.0129 19.8572L33.953 20.4546C33.6655 20.5107 33.4209 20.2398 33.502 19.9553L35.4991 12.9513C35.5803 12.6661 35.3347 12.3951 35.0469 12.4521H35.0468Z" fill="url(#paint1_linear_1_5764)"/>
<defs>
<linearGradient id="paint0_linear_1_5764" x1="12.5455" y1="17.9837" x2="28.3406" y2="39.1873" gradientUnits="userSpaceOnUse">
<stop stop-color="#41D1FF"/>
<stop offset="1" stop-color="#BD34FE"/>
</linearGradient>
<linearGradient id="paint1_linear_1_5764" x1="29.5054" y1="13.0268" x2="32.7801" y2="35.2306" gradientUnits="userSpaceOnUse">
<stop stop-color="#FFEA83"/>
<stop offset="0.083" stop-color="#FFDD35"/>
<stop offset="1" stop-color="#FFA800"/>
</linearGradient>
</defs>
</svg>
